<svg height="512pt" viewBox="-108 0 512 512.00046" width="512pt" xmlns="http://www.w3.org/2000/svg"><path d="m18.816406 486.539062c-12.65625-2.511718-20.875-14.808593-18.363281-27.460937l22.59375-113.816406c.671875-3.386719 2.085937-6.582031 4.140625-9.355469l74.019531-99.925781c7.679688-10.367188 22.308594-12.546875 32.675781-4.867188 10.367188 7.679688 12.546876 22.308594 4.867188 32.675781l-70.898438 95.710938-21.574218 108.675781c-2.503906 12.632813-14.785156 20.878907-27.460938 18.363281zm0 0" fill="#5f6e9b"/><path d="m249.953125 468.175781-21.574219-108.675781-70.898437-95.710938c-7.679688-10.367187-5.5-24.996093 4.867187-32.675781 10.367188-7.679687 24.996094-5.5 32.675782 4.867188l74.019531 99.925781c2.054687 2.773438 3.46875 5.96875 4.140625 9.355469l22.59375 113.816406c2.511718 12.652344-5.710938 24.949219-18.363282 27.460937-12.683593 2.515626-24.957031-5.738281-27.460937-18.363281zm0 0" fill="#414b82"/><path d="m172.433594 487.703125c.007812 13.40625-10.851563 24.285156-24.261719 24.296875s-24.289063-10.851562-24.300781-24.257812l-.070313-91.199219c-.011719-13.410157 10.851563-24.289063 24.257813-24.300781 13.410156-.007813 24.289062 10.851562 24.300781 24.261718zm0 0" fill="#313a40"/><path d="m250.730469 249.011719h-206.695313c-9.222656 0-16.703125-7.476563-16.703125-16.699219v-161.292969c0-9.222656 7.480469-16.699219 16.703125-16.699219h206.699219c9.222656 0 16.699219 7.476563 16.699219 16.699219v161.292969c0 9.222656-7.476563 16.699219-16.703125 16.699219zm0 0" fill="#b48255"/><path d="m278.105469 202.21875-10.683594-43.941406c-.980469-4.050782-3.238281-7.675782-6.4375-10.34375l-50.160156-41.925782c-7.84375-6.554687-17.742188-10.144531-27.964844-10.144531h-70.382813c-10.875 0-21.363281 4.0625-29.394531 11.398438l-55.027343 50.222656c-3.382813 3.097656-5.5625 7.289063-6.152344 11.835937l-5.660156 43.34375 16.175781 21.300782 23.085937-21.300782 4.082032-31.261718 36.097656-33.0625.238281 108.089844c.027344 13.144531 10.703125 23.773437 23.847656 23.742187l55.523438-.121094c13.140625-.027343 23.773437-10.703125 23.742187-23.847656l-.242187-109.472656 32.3125 26.976562 8.796875 36.1875 24.945312 16.628907zm0 0" fill="#ffb69e"/><path d="m242.597656 132.566406-31.773437-26.558594c-7.84375-6.554687-17.742188-10.144531-27.964844-10.144531h-14.035156v.019531c.535156 11.925782-10.535157 22.085938-22.085938 22.085938-12.382812 0-21.550781-10.121094-22.085937-22.085938 0-.007812 0-.015624 0-.019531h-12.171875c-10.878907 0-21.363281 4.0625-29.398438 11.398438l-29.53125 26.953125 27.152344 27.847656 14.980469-13.722656.238281 108.089844c.03125 13.144531 10.707031 23.773437 23.847656 23.742187l55.523438-.121094c13.144531-.027343 23.773437-10.703125 23.742187-23.847656l-.238281-109.472656 18.359375 15.328125zm0 0" fill="#64afff"/><path d="m187.351562 40.257812c-.050781-22.28125-18.152343-40.3085932-40.433593-40.257812-22.285157.0507812-40.308594 18.152344-40.257813 40.433594.046875 22.285156 18.152344 40.308594 40.433594 40.257812 22.28125-.046875 40.308594-18.152344 40.257812-40.433594zm0 0" fill="#ffb69e"/><path d="m37.601562 249.972656c-7.675781 0-13.898437-6.21875-13.902343-13.890625-.007813-7.679687 6.210937-13.910156 13.890625-13.914062l221.03125-.175781h.007812c7.675782 0 13.898438 6.214843 13.902344 13.890624.007812 7.675782-6.210938 13.90625-13.890625 13.910157l-221.03125.179687s-.003906 0-.007813 0zm0 0" fill="#313a40"/><path d="m224.621094 424.863281c.007812 9.585938-7.757813 17.359375-17.34375 17.367188l-118.226563.097656c-9.585937.007813-17.363281-7.757813-17.371093-17.34375l-.066407-84.75c-.035156-42.234375 34.175781-76.496094 76.410157-76.53125 42.230468-.035156 76.496093 34.175781 76.53125 76.410156zm0 0" fill="#fa503c"/><path d="m148.117188 269.742188c-18.605469.003906-33.75-15.125-33.761719-33.734376-.007813-9.019531 3.496093-17.5 9.867187-23.882812 6.375-6.382812 14.847656-9.902344 23.867188-9.90625h.027344c9.007812 0 17.480468 3.503906 23.855468 9.867188 6.382813 6.375 9.898438 14.847656 9.90625 23.867187.007813 9.019531-3.496094 17.5-9.867187 23.882813-6.375 6.382812-14.851563 9.902343-23.867188 9.90625-.007812 0-.019531 0-.027343 0zm0 0" fill="#fff"/><path d="m148.113281 279.050781c-23.734375.003907-43.046875-19.296875-43.070312-43.035156-.007813-11.503906 4.464843-22.324219 12.59375-30.464844 8.125-8.140625 18.9375-12.632812 30.441406-12.640625h.039063c11.492187 0 22.292968 4.46875 30.429687 12.589844 8.140625 8.128906 12.628906 18.941406 12.636719 30.449219.011718 11.503906-4.460938 22.320312-12.589844 30.464843-8.128906 8.140626-18.941406 12.628907-30.445312 12.636719-.007813 0-.023438 0-.035157 0zm.003907-63.320312c-.007813 0-.011719 0-.015626 0-5.410156.003906-10.492187 2.113281-14.316406 5.941406-3.820312 3.828125-5.921875 8.914063-5.917968 14.324219.007812 11.160156 9.089843 20.230468 20.25 20.230468h.015624c5.410157-.003906 10.492188-2.113281 14.3125-5.941406 3.820313-3.828125 5.921876-8.914062 5.917969-14.320312v-.003906c-.003906-5.40625-2.113281-10.492188-5.941406-14.3125-3.820313-3.816407-8.902344-5.917969-14.304687-5.917969zm0 0" fill="#fa503c"/><g fill="#ffb69e"><path d="m278.105469 202.21875-38.203125 7.675781 8.613281 35.4375c2.589844 10.652344 13.496094 17.125 24.167969 14.148438 10.179687-2.839844 16.054687-13.523438 13.554687-23.796875zm0 0"/><path d="m16.242188 212.664062-3.519532 26.953126c-1.394531 10.660156 6.117188 20.429687 16.78125 21.824218 10.632813 1.386719 20.429688-6.09375 21.824219-16.78125l4.175781-31.996094zm0 0"/></g></svg>